<svg width="18" height="17" viewBox="0 0 18 17" fill="none" xmlns="http://www.w3.org/2000/svg">
<g clip-path="url(#clip0_471_632)">
<path d="M8.65576 2.8335V14.521" stroke="#97979C" stroke-width="0.5" stroke-miterlimit="10" stroke-linecap="round" stroke-linejoin="round"/>
<path d="M4.75977 4.9585L5.82227 5.66683L6.88477 4.9585" stroke="#97979C" stroke-width="0.5" stroke-miterlimit="10" stroke-linecap="round" stroke-linejoin="round"/>
<path d="M4.40576 13.8125H5.82243V12.5729L6.53076 11.6875" stroke="#97979C" stroke-width="0.5" stroke-miterlimit="10" stroke-linecap="round" stroke-linejoin="round"/>
<path d="M5.82243 5.6665V7.7915L4.40576 9.20817V10.2707" stroke="#97979C" stroke-width="0.5" stroke-miterlimit="10" stroke-linecap="round" stroke-linejoin="round"/>
<path d="M2.28076 7.4375H3.69743" stroke="#97979C" stroke-width="0.5" stroke-miterlimit="10" stroke-linecap="round" stroke-linejoin="round"/>
<path d="M10.0721 9.5625H7.23877" stroke="#97979C" stroke-width="0.5" stroke-miterlimit="10" stroke-linecap="round" stroke-linejoin="round"/>
<path d="M5.82227 1.0625V3.1875" stroke="#97979C" stroke-width="0.5" stroke-miterlimit="10" stroke-linecap="round" stroke-linejoin="round"/>
<path d="M1.43066 11.6875H3.69733" stroke="#97979C" stroke-width="0.5" stroke-miterlimit="10" stroke-linecap="round" stroke-linejoin="round"/>
<path d="M8.65544 14.5208L10.4263 15.9375H13.2596L16.4471 10.625V8.5L15.0304 7.4375V4.95833L13.6138 4.25V2.83333L11.4888 1.0625L8.65544 2.83333L5.8221 1.0625L3.6971 2.83333V4.25L2.28044 4.95833V7.4375L0.86377 8.14583V10.625L3.6971 15.9375H6.53044L8.65544 14.5208Z" stroke="#97979C" stroke-width="0.5" stroke-miterlimit="10" stroke-linecap="round" stroke-linejoin="round"/>
<path d="M12.5513 4.9585L11.4888 5.66683L10.4263 4.9585" stroke="#97979C" stroke-width="0.5" stroke-miterlimit="10" stroke-linecap="round" stroke-linejoin="round"/>
<path d="M12.9058 13.8125H11.4891V12.5729L10.7808 11.6875" stroke="#97979C" stroke-width="0.5" stroke-miterlimit="10" stroke-linecap="round" stroke-linejoin="round"/>
<path d="M11.4888 5.6665V7.7915L12.9054 9.20817V10.2707" stroke="#97979C" stroke-width="0.5" stroke-miterlimit="10" stroke-linecap="round" stroke-linejoin="round"/>
<path d="M15.0304 7.4375H13.6138" stroke="#97979C" stroke-width="0.5" stroke-miterlimit="10" stroke-linecap="round" stroke-linejoin="round"/>
<path d="M11.4888 1.0625V3.1875" stroke="#97979C" stroke-width="0.5" stroke-miterlimit="10" stroke-linecap="round" stroke-linejoin="round"/>
<path d="M15.8096 11.6875H13.6138" stroke="#97979C" stroke-width="0.5" stroke-miterlimit="10" stroke-linecap="round" stroke-linejoin="round"/>
</g>
<defs>
<clipPath id="clip0_471_632">
<rect width="17" height="17" fill="white" transform="translate(0.509766)"/>
</clipPath>
</defs>
</svg>
