<svg width="17" height="17" viewBox="0 0 17 17" fill="none" xmlns="http://www.w3.org/2000/svg">
<path d="M11.2558 4.78123H5.81056C4.74806 4.78123 3.95117 3.91792 3.95117 2.92183C3.95117 1.85933 4.81447 1.0625 5.81056 1.0625H11.2558C12.3183 1.0625 13.1152 1.92574 13.1152 2.92183C13.1152 3.91792 12.2519 4.78123 11.2558 4.78123Z" stroke="#97979C" stroke-width="1.4" stroke-miterlimit="10" stroke-linecap="round" stroke-linejoin="round"/>
<path d="M14.4433 11.0898H2.55658C2.35736 11.0898 2.22455 10.957 2.22455 10.7578V7.63672C2.22455 7.4375 2.35736 7.30469 2.55658 7.30469H14.4433C14.6425 7.30469 14.7753 7.4375 14.7753 7.63672V10.7578C14.7753 10.957 14.6425 11.0898 14.4433 11.0898Z" stroke="#97979C" stroke-width="1.4" stroke-miterlimit="10" stroke-linecap="round" stroke-linejoin="round"/>
<path d="M8.53314 4.78125V7.30465" stroke="#97979C" stroke-width="1.4" stroke-miterlimit="10" stroke-linecap="round" stroke-linejoin="round"/>
<path d="M8.53314 11.0898V15.9375" stroke="#97979C" stroke-width="1.4" stroke-miterlimit="10" stroke-linecap="round" stroke-linejoin="round"/>
<path d="M10.5918 13.8125L8.53322 15.9375L6.4082 13.8125" stroke="#97979C" stroke-width="1.4" stroke-miterlimit="10" stroke-linecap="round" stroke-linejoin="round"/>
</svg>
