<svg width="17" height="17" viewBox="0 0 17 17" fill="none" xmlns="http://www.w3.org/2000/svg">
<g clip-path="url(#clip0_137_344)">
<path d="M8.50134 11.9844V15.9688" stroke="#97979C" stroke-linecap="round" stroke-linejoin="round"/>
<path d="M8.50134 1.02734V5.01172" stroke="#97979C" stroke-linecap="round" stroke-linejoin="round"/>
<path d="M5.01501 8.49805H1.03064" stroke="#97979C" stroke-linecap="round" stroke-linejoin="round"/>
<path d="M15.972 8.49805H11.9877" stroke="#97979C" stroke-linecap="round" stroke-linejoin="round"/>
<path d="M3.02283 8.4985C3.02283 9.21801 3.16454 9.93035 3.43986 10.5951C3.71518 11.2597 4.11872 11.8637 4.62745 12.3724C5.13618 12.8812 5.74012 13.2847 6.40481 13.5601C7.06949 13.8354 7.78189 13.977 8.50134 13.977C9.22078 13.977 9.93319 13.8354 10.5979 13.5601C11.2626 13.2847 11.8665 12.8812 12.3752 12.3724C12.8839 11.8637 13.2875 11.2597 13.5628 10.5951C13.8381 9.93035 13.9799 9.21801 13.9799 8.4985C13.9799 7.77906 13.8381 7.06668 13.5628 6.402C13.2875 5.73731 12.8839 5.13337 12.3752 4.62464C11.8665 4.11591 11.2626 3.71236 10.5979 3.43704C9.93319 3.16172 9.22078 3.02002 8.50134 3.02002C7.78189 3.02002 7.06949 3.16172 6.40481 3.43704C5.74012 3.71236 5.13618 4.11591 4.62745 4.62464C4.11872 5.13337 3.71518 5.73731 3.43986 6.402C3.16454 7.06668 3.02283 7.77906 3.02283 8.4985Z" stroke="#97979C" stroke-linecap="round" stroke-linejoin="round"/>
</g>
<defs>
<clipPath id="clip0_137_344">
<rect width="17" height="17" fill="white"/>
</clipPath>
</defs>
</svg>
