<svg width="17" height="17" viewBox="0 0 17 17" fill="none" xmlns="http://www.w3.org/2000/svg">
<path d="M4.08765 6.80273V14.2697" stroke="#97979C" stroke-width="0.5" stroke-miterlimit="10" stroke-linecap="round" stroke-linejoin="round"/>
<path d="M4.08765 4.76633V3.40869" stroke="#97979C" stroke-width="0.5" stroke-miterlimit="10" stroke-linecap="round" stroke-linejoin="round"/>
<path d="M15.6276 1.37256H0.693604V16.3066H15.6276V1.37256Z" stroke="#97979C" stroke-width="0.5" stroke-miterlimit="10" stroke-linecap="round" stroke-linejoin="round"/>
<path d="M5.1059 6.80306H3.06944L2.39062 5.78483L3.06944 4.7666H5.1059L5.78472 5.78483L5.1059 6.80306Z" stroke="#97979C" stroke-width="0.5" stroke-miterlimit="10" stroke-linecap="round" stroke-linejoin="round"/>
<path d="M9.17878 12.2337H7.14232L6.4635 11.2155L7.14232 10.1973H9.17878L9.8576 11.2155L9.17878 12.2337Z" stroke="#97979C" stroke-width="0.5" stroke-miterlimit="10" stroke-linecap="round" stroke-linejoin="round"/>
<path d="M13.2518 8.16048H11.2153L10.5365 7.14225L11.2153 6.12402H13.2518L13.9306 7.14225L13.2518 8.16048Z" stroke="#97979C" stroke-width="0.5" stroke-miterlimit="10" stroke-linecap="round" stroke-linejoin="round"/>
<path d="M8.16064 12.2334V14.2699" stroke="#97979C" stroke-width="0.5" stroke-miterlimit="10" stroke-linecap="round" stroke-linejoin="round"/>
<path d="M8.16064 10.1969V3.40869" stroke="#97979C" stroke-width="0.5" stroke-miterlimit="10" stroke-linecap="round" stroke-linejoin="round"/>
<path d="M12.2335 8.16064V14.27" stroke="#97979C" stroke-width="0.5" stroke-miterlimit="10" stroke-linecap="round" stroke-linejoin="round"/>
<path d="M12.2335 6.12397V3.40869" stroke="#97979C" stroke-width="0.5" stroke-miterlimit="10" stroke-linecap="round" stroke-linejoin="round"/>
</svg>
