<svg width="12" height="12" viewBox="0 0 12 12" fill="none" xmlns="http://www.w3.org/2000/svg">
<path d="M7.44114 7.77637L8.31947 9.53303L7.44114 11.2897H5.09891L4.22058 9.53303L5.09891 7.77637H7.44114Z" stroke="#BABABD" stroke-width="0.5" stroke-miterlimit="10" stroke-linecap="round" stroke-linejoin="round"/>
<path d="M4.22056 6.01978L5.09889 7.77644L4.22056 9.53311H1.87833L1 7.77644L1.87833 6.01978H4.22056Z" stroke="#BABABD" stroke-width="0.5" stroke-miterlimit="10" stroke-linecap="round" stroke-linejoin="round"/>
<path d="M10.6616 6.01978L11.5399 7.77644L10.6616 9.53311H8.31937L7.44104 7.77644L8.31937 6.01978H10.6616Z" stroke="#BABABD" stroke-width="0.5" stroke-miterlimit="10" stroke-linecap="round" stroke-linejoin="round"/>
<path d="M7.44114 4.26318L8.31947 6.01985L7.44114 7.77652H5.09891L4.22058 6.01985L5.09891 4.26318H7.44114Z" stroke="#BABABD" stroke-width="0.5" stroke-miterlimit="10" stroke-linecap="round" stroke-linejoin="round"/>
<path d="M4.22056 2.50635L5.09889 4.26301L4.22056 6.01968H1.87833L1 4.26301L1.87833 2.50635H4.22056Z" stroke="#BABABD" stroke-width="0.5" stroke-miterlimit="10" stroke-linecap="round" stroke-linejoin="round"/>
<path d="M10.6616 2.50635L11.5399 4.26301L10.6616 6.01968H8.31937L7.44104 4.26301L8.31937 2.50635H10.6616Z" stroke="#BABABD" stroke-width="0.5" stroke-miterlimit="10" stroke-linecap="round" stroke-linejoin="round"/>
<path d="M7.44114 0.749756L8.31947 2.50642L7.44114 4.26309H5.09891L4.22058 2.50642L5.09891 0.749756H7.44114Z" stroke="#BABABD" stroke-width="0.5" stroke-miterlimit="10" stroke-linecap="round" stroke-linejoin="round"/>
</svg>
