<svg width="16" height="17" viewBox="0 0 16 17" fill="none" xmlns="http://www.w3.org/2000/svg">
<path d="M9.67716 10.9348L10.935 13.4504L9.67716 15.9661H6.323L5.06519 13.4504L6.323 10.9348H9.67716Z" stroke="#040404" stroke-width="0.5" stroke-miterlimit="10" stroke-linecap="round" stroke-linejoin="round"/>
<path d="M5.0651 8.41919L6.32292 10.9348L5.0651 13.4504H1.71094L0.453125 10.9348L1.71094 8.41919H5.0651Z" stroke="#040404" stroke-width="0.5" stroke-miterlimit="10" stroke-linecap="round" stroke-linejoin="round"/>
<path d="M14.289 8.41919L15.5468 10.9348L14.289 13.4504H10.9348L9.677 10.9348L10.9348 8.41919H14.289Z" stroke="#040404" stroke-width="0.5" stroke-miterlimit="10" stroke-linecap="round" stroke-linejoin="round"/>
<path d="M9.67716 5.90356L10.935 8.41919L9.67716 10.9348H6.323L5.06519 8.41919L6.323 5.90356H9.67716Z" stroke="#040404" stroke-width="0.5" stroke-miterlimit="10" stroke-linecap="round" stroke-linejoin="round"/>
<path d="M5.0651 3.38794L6.32292 5.90357L5.0651 8.41919H1.71094L0.453125 5.90357L1.71094 3.38794H5.0651Z" stroke="#040404" stroke-width="0.5" stroke-miterlimit="10" stroke-linecap="round" stroke-linejoin="round"/>
<path d="M14.289 3.38794L15.5468 5.90357L14.289 8.41919H10.9348L9.677 5.90357L10.9348 3.38794H14.289Z" stroke="#040404" stroke-width="0.5" stroke-miterlimit="10" stroke-linecap="round" stroke-linejoin="round"/>
<path d="M9.67716 0.872314L10.935 3.38794L9.67716 5.90356H6.323L5.06519 3.38794L6.323 0.872314H9.67716Z" stroke="#040404" stroke-width="0.5" stroke-miterlimit="10" stroke-linecap="round" stroke-linejoin="round"/>
</svg>
