<svg width="51" height="50" viewBox="0 0 51 50" fill="none" xmlns="http://www.w3.org/2000/svg">
<path d="M47.8333 11.875L39.0833 3.125L24.9167 17.2917L10.75 3.125L2 11.875L16.1667 26.0417L2 40.2083L10.75 48.9583L24.9167 34.7917L39.0833 48.9583L47.8333 40.2083L33.6667 26.0417L47.8333 11.875Z" fill="white" fill-opacity="0.1"/>
<path d="M33.668 26.0418V19.7917L44.7096 8.75L47.8346 11.875L33.668 26.0418Z" fill="#686870" fill-opacity="0.5"/>
<path d="M10.75 48.9583L10.9583 42.7083L24.9166 28.75L39.0833 42.7083L44.7083 37.0833L47.8333 40.2083L39.0833 48.9583L24.9166 34.7917L10.75 48.9583Z" fill="#686870" fill-opacity="0.5"/>
<path d="M47.8333 11.875L39.0833 3.125L24.9167 17.2917L10.75 3.125L2 11.875L16.1667 26.0417L2 40.2083L10.75 48.9583L24.9167 34.7917L39.0833 48.9583L47.8333 40.2083L33.6667 26.0417L47.8333 11.875Z" stroke="#BABABD" stroke-miterlimit="10" stroke-linecap="round" stroke-linejoin="round"/>
</svg>
