<svg width="18" height="15" viewBox="0 0 18 15" fill="none" xmlns="http://www.w3.org/2000/svg">
<path d="M0.734375 14.6875L9 0.3125L17.2656 14.6875H0.734375Z" stroke="#040404" stroke-width="0.5" stroke-miterlimit="10" stroke-linecap="round" stroke-linejoin="round"/>
<path d="M6.48437 12.5313L5.40625 13.25L4.32812 12.5313V11.4531L5.40625 10.7344L6.48437 11.4531V12.5313Z" stroke="#040404" stroke-width="0.5" stroke-miterlimit="10" stroke-linecap="round" stroke-linejoin="round"/>
<path d="M10.0781 12.5313L9 13.25L7.92188 12.5313V11.4531L9 10.7344L10.0781 11.4531V12.5313Z" stroke="#040404" stroke-width="0.5" stroke-miterlimit="10" stroke-linecap="round" stroke-linejoin="round"/>
<path d="M13.6719 12.5313L12.5937 13.25L11.5156 12.5313V11.4531L12.5937 10.7344L13.6719 11.4531V12.5313Z" stroke="#040404" stroke-width="0.5" stroke-miterlimit="10" stroke-linecap="round" stroke-linejoin="round"/>
<path d="M7.92188 9.29687L6.84375 10.0156L5.76562 9.29687V8.21875L6.84375 7.5L7.92188 8.21875V9.29687Z" stroke="#040404" stroke-width="0.5" stroke-miterlimit="10" stroke-linecap="round" stroke-linejoin="round"/>
<path d="M12.2344 9.29687L11.1562 10.0156L10.0781 9.29687V8.21875L11.1562 7.5L12.2344 8.21875V9.29687Z" stroke="#040404" stroke-width="0.5" stroke-miterlimit="10" stroke-linecap="round" stroke-linejoin="round"/>
<path d="M10.0781 6.42188L9 7.14063L7.92188 6.42188V5.34375L9 4.625L10.0781 5.34375V6.42188Z" stroke="#040404" stroke-width="0.5" stroke-miterlimit="10" stroke-linecap="round" stroke-linejoin="round"/>
</svg>
