<svg width="15" height="16" viewBox="0 0 15 16" fill="none" xmlns="http://www.w3.org/2000/svg">
<path d="M2.64744 6.33283L0.652832 4.33822L1.13775 2.60619L2.9803 4.44875L4.30983 3.11922L2.46792 1.27666L4.1993 0.791748L6.19392 2.78636L5.66619 4.47494L11.0252 9.83394L12.7138 9.30622L14.7084 11.3008L14.2235 13.0322L12.3809 11.1903L11.0514 12.5198L12.8933 14.3624L11.1619 14.8473L9.1673 12.8521L9.69503 11.1641L4.33603 5.80511L2.64744 6.33283Z" stroke="#040404" stroke-width="0.5" stroke-miterlimit="10" stroke-linecap="round" stroke-linejoin="round"/>
<path d="M7.68066 6.48936L9.01083 7.81953L11.0252 5.80511L12.7132 6.33283L14.7084 4.33822L14.2235 2.60619L12.381 4.44875L11.0514 3.11922L12.8934 1.27666L11.162 0.791748L9.16736 2.78636L9.69508 4.47494L7.68066 6.48936Z" stroke="#040404" stroke-width="0.5" stroke-miterlimit="10" stroke-linecap="round" stroke-linejoin="round"/>
<path d="M7.68061 9.14886L6.35044 7.81934L4.33603 9.83375L2.64744 9.30603L0.652832 11.3006L1.13775 13.032L2.9803 11.1901L4.30983 12.5196L2.46792 14.3622L4.1993 14.8471L6.19391 12.8519L5.66619 11.1639L7.68061 9.14886Z" stroke="#040404" stroke-width="0.5" stroke-miterlimit="10" stroke-linecap="round" stroke-linejoin="round"/>
</svg>
