<svg width="49" height="48" viewBox="0 0 49 48" fill="none" xmlns="http://www.w3.org/2000/svg">
<path d="M2.45801 19.2085V24.9585H4.37467L10.1247 44.1252H38.8747L44.6247 24.9585H46.5413V19.2085H2.45801Z" fill="white" fill-opacity="0.1"/>
<path d="M44.625 24.9585H4.375L10.125 44.1252H38.875L44.625 24.9585Z" stroke="#BABABD" stroke-width="2" stroke-linecap="round" stroke-linejoin="round"/>
<path d="M46.5413 19.2085H2.45801V24.9585H46.5413V19.2085Z" stroke="#BABABD" stroke-width="2" stroke-linecap="round" stroke-linejoin="round"/>
<path d="M8.20801 19.2082L19.708 5.7915" stroke="#BABABD" stroke-width="2" stroke-linecap="round" stroke-linejoin="round"/>
<path d="M41.7503 19.2082L29.292 5.7915" stroke="#BABABD" stroke-width="2" stroke-linecap="round" stroke-linejoin="round"/>
<path d="M32.1663 37.4165L28.333 34.5415H20.6663L16.833 37.4165" stroke="#BABABD" stroke-width="2" stroke-linecap="round" stroke-linejoin="round"/>
<path d="M35.0413 29.75L34.083 30.7083L35.0413 31.6667" stroke="#BABABD" stroke-width="2" stroke-linecap="round" stroke-linejoin="round"/>
<path d="M35.042 29.75L36.0003 30.7083L35.042 31.6667" stroke="#BABABD" stroke-width="2" stroke-linecap="round" stroke-linejoin="round"/>
<path d="M13.9583 29.75L13 30.7083L13.9583 31.6667" stroke="#BABABD" stroke-width="2" stroke-linecap="round" stroke-linejoin="round"/>
<path d="M13.958 29.75L14.9163 30.7083L13.958 31.6667" stroke="#BABABD" stroke-width="2" stroke-linecap="round" stroke-linejoin="round"/>
</svg>
