<svg width="55" height="55" viewBox="0 0 55 55" fill="none" xmlns="http://www.w3.org/2000/svg">
<path d="M8.02075 33.2292V36.6667L17.1897 44.6876V53.8542" stroke="#BABABD" stroke-width="2" stroke-miterlimit="10" stroke-linecap="round" stroke-linejoin="round"/>
<path d="M37.8126 53.8542V46.9792H46.9792V35.5208H53.8542L46.9792 21.7708V14.8958L28.6459 3.4375L26.3542 4.58333" stroke="#BABABD" stroke-width="2" stroke-miterlimit="10" stroke-linecap="round" stroke-linejoin="round"/>
<path d="M17.1874 12.6042H8.02075V21.7709H17.1874V12.6042Z" stroke="#BABABD" stroke-width="2" stroke-miterlimit="10" stroke-linecap="round" stroke-linejoin="round"/>
<path d="M21.7708 8.02075H3.4375V26.3541H21.7708V8.02075Z" stroke="#BABABD" stroke-width="2" stroke-miterlimit="10" stroke-linecap="round" stroke-linejoin="round"/>
<path d="M3.43742 12.6042H1.14575" stroke="#BABABD" stroke-width="2" stroke-miterlimit="10" stroke-linecap="round" stroke-linejoin="round"/>
<path d="M3.43742 17.1875H1.14575" stroke="#BABABD" stroke-width="2" stroke-miterlimit="10" stroke-linecap="round" stroke-linejoin="round"/>
<path d="M3.43742 21.7708H1.14575" stroke="#BABABD" stroke-width="2" stroke-miterlimit="10" stroke-linecap="round" stroke-linejoin="round"/>
<path d="M21.7708 12.6042H24.0624" stroke="#BABABD" stroke-width="2" stroke-miterlimit="10" stroke-linecap="round" stroke-linejoin="round"/>
<path d="M21.7708 17.1875H24.0624" stroke="#BABABD" stroke-width="2" stroke-miterlimit="10" stroke-linecap="round" stroke-linejoin="round"/>
<path d="M21.7708 21.7708H24.0624" stroke="#BABABD" stroke-width="2" stroke-miterlimit="10" stroke-linecap="round" stroke-linejoin="round"/>
<path d="M17.1875 8.02091V5.72925" stroke="#BABABD" stroke-width="2" stroke-miterlimit="10" stroke-linecap="round" stroke-linejoin="round"/>
<path d="M12.6042 8.02091V5.72925" stroke="#BABABD" stroke-width="2" stroke-miterlimit="10" stroke-linecap="round" stroke-linejoin="round"/>
<path d="M8.02075 8.02091V5.72925" stroke="#BABABD" stroke-width="2" stroke-miterlimit="10" stroke-linecap="round" stroke-linejoin="round"/>
<path d="M17.1875 26.3542V28.6459" stroke="#BABABD" stroke-width="2" stroke-miterlimit="10" stroke-linecap="round" stroke-linejoin="round"/>
<path d="M12.6042 26.3542V28.6459" stroke="#BABABD" stroke-width="2" stroke-miterlimit="10" stroke-linecap="round" stroke-linejoin="round"/>
<path d="M8.02075 26.3542V28.6459" stroke="#BABABD" stroke-width="2" stroke-miterlimit="10" stroke-linecap="round" stroke-linejoin="round"/>
<path d="M40.1042 24.0624V21.7708" stroke="#BABABD" stroke-width="2" stroke-miterlimit="10" stroke-linecap="round" stroke-linejoin="round"/>
</svg>
