<svg height="300" viewBox="0 0 512 512" width="300" xmlns="http://www.w3.org/2000/svg" version="1.1" xmlns:xlink="http://www.w3.org/1999/xlink" xmlns:svgjs="http://svgjs.dev/svgjs"><g width="100%" height="100%" transform="matrix(1,0,0,1,0,0)"><g id="ARROW_48" data-name="ARROW 48"><path d="m488 63.38h-464a24 24 0 0 0 0 48h464a24 24 0 1 0 0-48z" fill="#ffffff" fill-opacity="1" data-original-color="#000000ff" stroke="none" stroke-opacity="1"/><path d="m488 400.62h-464a24 24 0 0 0 0 48h464a24 24 0 0 0 0-48z" fill="#ffffff" fill-opacity="1" data-original-color="#000000ff" stroke="none" stroke-opacity="1"/><path d="m488 232h-464a24 24 0 0 0 0 48h464a24 24 0 0 0 0-48z" fill="#ffffff" fill-opacity="1" data-original-color="#000000ff" stroke="none" stroke-opacity="1"/></g></g></svg>