<svg width="55" height="56" viewBox="0 0 55 56" fill="none" xmlns="http://www.w3.org/2000/svg">
<path d="M22.0096 7.13623L43.9714 29.098" stroke="#BABABD" stroke-width="2" stroke-miterlimit="10" stroke-linecap="round" stroke-linejoin="round"/>
<path d="M26.9971 12.0314L34.0885 4.93994H37.3828V8.23421L30.2913 15.3257" stroke="#BABABD" stroke-width="2" stroke-miterlimit="10" stroke-linecap="round" stroke-linejoin="round"/>
<path d="M39.0761 24.1103L46.1675 17.0189V13.7246H42.8733L35.7818 20.8161" stroke="#BABABD" stroke-width="2" stroke-miterlimit="10" stroke-linecap="round" stroke-linejoin="round"/>
<path d="M19.8353 31.2725L19.0601 22.7314L28.3763 32.0477L19.8353 31.2725Z" stroke="#BABABD" stroke-width="2" stroke-miterlimit="10" stroke-linecap="round" stroke-linejoin="round"/>
<path d="M15.9547 35.1533L6.63629 44.4717L14.3229 53.2564L23.1076 44.4717L30.7943 53.2564L39.579 44.4717L43.9714 48.8641" stroke="#BABABD" stroke-width="2" stroke-miterlimit="10" stroke-linecap="round" stroke-linejoin="round"/>
<path d="M20.6128 11.8599L39.2474 30.4945" stroke="#BABABD" stroke-width="2" stroke-miterlimit="10" stroke-linecap="round" stroke-linejoin="round"/>
<path d="M23.672 8.79883L11.2944 21.1765L15.9547 35.153L29.9312 39.8133L42.3088 27.4357L23.672 8.79883Z" stroke="#BABABD" stroke-width="2" stroke-miterlimit="10" stroke-linecap="round" stroke-linejoin="round"/>
</svg>
