<svg width="12" height="13" viewBox="0 0 12 13" fill="none" xmlns="http://www.w3.org/2000/svg">
<g clip-path="url(#clip0_1091_3163)">
<path d="M1.9857 5.62456L0.489746 4.1286L0.853434 2.82958L2.23535 4.2115L3.2325 3.21435L1.85106 1.83244L3.1496 1.46875L4.64556 2.96471L4.24977 4.23115L8.26902 8.2504L9.53545 7.8546L11.0314 9.35056L10.6677 10.6491L9.28581 9.26767L8.28866 10.2648L9.6701 11.6467L8.37156 12.0104L6.8756 10.514L7.27139 9.24802L3.25214 5.22877L1.9857 5.62456Z" stroke="#BABABD" stroke-width="0.5" stroke-miterlimit="10" stroke-linecap="round" stroke-linejoin="round"/>
<path d="M5.76025 5.74196L6.75788 6.73958L8.26869 5.22877L9.53465 5.62456L11.0311 4.1286L10.6674 2.82958L9.28548 4.2115L8.28834 3.21435L9.66977 1.83244L8.37123 1.46875L6.87528 2.96471L7.27107 4.23115L5.76025 5.74196Z" stroke="#BABABD" stroke-width="0.5" stroke-miterlimit="10" stroke-linecap="round" stroke-linejoin="round"/>
<path d="M5.76058 7.73665L4.76295 6.7395L3.25214 8.25031L1.9857 7.85452L0.489746 9.35048L0.853434 10.649L2.23535 9.26759L3.2325 10.2647L1.85106 11.6466L3.1496 12.0103L4.64556 10.5139L4.24977 9.24794L5.76058 7.73665Z" stroke="#BABABD" stroke-width="0.5" stroke-miterlimit="10" stroke-linecap="round" stroke-linejoin="round"/>
</g>
<defs>
<clipPath id="clip0_1091_3163">
<rect width="12" height="12" fill="white" transform="translate(0 0.5)"/>
</clipPath>
</defs>
</svg>
