<svg width="12" height="10" viewBox="0 0 12 10" fill="none" xmlns="http://www.w3.org/2000/svg">
<g clip-path="url(#clip0_1341_1346)">
<path fill-rule="evenodd" clip-rule="evenodd" d="M5.98361 0C2.95132 0 0.5 2.29167 0.5 5.12677C0.5 7.39302 2.07064 9.31136 4.24954 9.99031C4.52196 10.0414 4.62175 9.88 4.62175 9.74427C4.62175 9.62542 4.61277 9.21802 4.61277 8.79354C3.08736 9.09917 2.7697 8.1824 2.7697 8.1824C2.52456 7.58823 2.16134 7.43552 2.16134 7.43552C1.66207 7.12146 2.1977 7.12146 2.1977 7.12146C2.75152 7.15542 3.04212 7.64771 3.04212 7.64771C3.5323 8.42854 4.32216 8.20792 4.63993 8.07208C4.68528 7.74104 4.83063 7.51188 4.98497 7.38458C3.76835 7.26573 2.48831 6.82438 2.48831 4.85511C2.48831 4.2949 2.70606 3.83656 3.0511 3.4801C2.99666 3.35281 2.80596 2.82646 3.10565 2.12198C3.10565 2.12198 3.56866 1.98615 4.61265 2.64823C5.05962 2.53601 5.52058 2.47892 5.98361 2.47844C6.44662 2.47844 6.91861 2.53792 7.35446 2.64823C8.39856 1.98615 8.86157 2.12198 8.86157 2.12198C9.16127 2.82646 8.97045 3.35281 8.91601 3.4801C9.27014 3.83656 9.47892 4.2949 9.47892 4.85511C9.47892 6.82438 8.19888 7.25719 6.97316 7.38458C7.17296 7.54583 7.34537 7.85136 7.34537 8.33521C7.34537 9.02271 7.33639 9.57448 7.33639 9.74417C7.33639 9.88 7.43629 10.0414 7.70859 9.99042C9.88749 9.31125 11.4581 7.39302 11.4581 5.12677C11.4671 2.29167 9.00682 0 5.98361 0Z" fill="#BABABD"/>
</g>
<defs>
<clipPath id="clip0_1341_1346">
<rect width="11" height="10" fill="white" transform="translate(0.5)"/>
</clipPath>
</defs>
</svg>
