<svg width="13" height="10" viewBox="0 0 13 10" fill="none" xmlns="http://www.w3.org/2000/svg">
<g clip-path="url(#clip0_1341_1313)">
<path fill-rule="evenodd" clip-rule="evenodd" d="M0.82952 4.30493C4.06863 2.8937 6.22855 1.96333 7.30927 1.51383C10.3949 0.230387 11.0361 0.00744034 11.454 7.84937e-05C11.5459 -0.00154066 11.7515 0.0212387 11.8846 0.12926C11.997 0.220471 12.0279 0.343685 12.0427 0.430163C12.0575 0.516641 12.076 0.713641 12.0613 0.867571C11.8941 2.6245 11.1706 6.8881 10.8025 8.8559C10.6467 9.68854 10.34 9.96772 10.0431 9.99504C9.39788 10.0544 8.90792 9.56862 8.28297 9.15896C7.30504 8.51792 6.75258 8.11887 5.80334 7.49333C4.70632 6.77042 5.41747 6.37309 6.04266 5.72375C6.20627 5.55381 9.04922 2.96792 9.10425 2.73334C9.11113 2.704 9.11752 2.59464 9.05255 2.5369C8.98758 2.47915 8.8917 2.4989 8.8225 2.5146C8.72442 2.53687 7.16217 3.56945 4.13577 5.61236C3.69233 5.91686 3.29068 6.06522 2.93081 6.05745C2.53409 6.04887 1.77095 5.83313 1.20364 5.64872C0.507802 5.42253 -0.0452337 5.30294 0.00292326 4.91881C0.0280064 4.71872 0.303539 4.5141 0.82952 4.30493Z" fill="#BABABD"/>
</g>
<defs>
<clipPath id="clip0_1341_1313">
<rect width="12.5" height="10" fill="white"/>
</clipPath>
</defs>
</svg>
