<svg width="11" height="10" viewBox="0 0 11 10" fill="none" xmlns="http://www.w3.org/2000/svg">
<g clip-path="url(#clip0_1341_1343)">
<path fill-rule="evenodd" clip-rule="evenodd" d="M10.0437 0.126594C10.0838 0.163898 10.1161 0.208733 10.1389 0.258539C10.1616 0.308345 10.1743 0.362143 10.1762 0.41686C10.1782 0.471576 10.1693 0.526138 10.1501 0.577425C10.131 0.628712 10.1019 0.67572 10.0646 0.715761L6.67455 4.35118L10.4162 9.31784C10.4627 9.37972 10.4911 9.45333 10.4981 9.53043C10.5052 9.60752 10.4906 9.68505 10.456 9.75432C10.4214 9.82359 10.3683 9.88186 10.3024 9.92259C10.2366 9.96332 10.1607 9.98491 10.0833 9.98493H7.8008C7.73626 9.98496 7.67259 9.97 7.61481 9.94122C7.55704 9.91244 7.50674 9.87063 7.46789 9.81909L4.83455 6.32451L1.54539 9.85243C1.50807 9.89245 1.46323 9.92474 1.41344 9.94744C1.36364 9.97013 1.30987 9.9828 1.25518 9.98472C1.20049 9.98663 1.14596 9.97776 1.0947 9.9586C1.04344 9.93944 0.996452 9.91037 0.956427 9.87305C0.916401 9.83574 0.884117 9.7909 0.861419 9.74111C0.838721 9.69131 0.826052 9.63754 0.824137 9.58284C0.822222 9.52816 0.831097 9.47362 0.850257 9.42236C0.869416 9.3711 0.898484 9.32412 0.935802 9.28409L4.3258 5.64868L0.584135 0.682011C0.537629 0.620165 0.509265 0.546591 0.502219 0.469532C0.495174 0.392473 0.509726 0.314975 0.544245 0.245721C0.578763 0.176467 0.631885 0.118193 0.697658 0.07743C0.763431 0.0366667 0.839255 0.0150242 0.916635 0.0149276H3.19955C3.26403 0.0149596 3.32761 0.0299535 3.38531 0.0587295C3.44301 0.0875055 3.49324 0.129278 3.53205 0.180761L6.16539 3.67534L9.45414 0.147428C9.49144 0.107351 9.53627 0.07502 9.58608 0.0522815C9.63589 0.0295431 9.68969 0.0168435 9.7444 0.0149087C9.79912 0.0129739 9.85368 0.0218418 9.90497 0.0410055C9.95625 0.0601692 10.0033 0.089253 10.0433 0.126594H10.0437ZM5.81455 4.59493C5.8028 4.58134 5.79195 4.567 5.78205 4.55201L2.99164 0.847844H1.75205L8.0083 9.15201H9.24789L5.81455 4.59493Z" fill="#BABABD"/>
</g>
<defs>
<clipPath id="clip0_1341_1343">
<rect width="10" height="10" fill="white" transform="translate(0.5)"/>
</clipPath>
</defs>
</svg>
