<svg width="18" height="18" viewBox="0 0 18 18" fill="none" xmlns="http://www.w3.org/2000/svg">
<g clip-path="url(#clip0_958_1634)">
<path d="M9.6786 9.33919H7.64214L7.30273 3.90864L8.66037 1.19336L10.018 3.90864L9.6786 9.33919Z" stroke="#040404" stroke-width="0.5" stroke-miterlimit="10" stroke-linecap="round" stroke-linejoin="round"/>
<path d="M7.53239 7.58447L5.94531 8.32101V10.0181L7.64236 9.33923" stroke="#040404" stroke-width="0.5" stroke-miterlimit="10" stroke-linecap="round" stroke-linejoin="round"/>
<path d="M9.78868 7.5791L11.3758 8.32106V10.0181L9.67871 9.33929" stroke="#040404" stroke-width="0.5" stroke-miterlimit="10" stroke-linecap="round" stroke-linejoin="round"/>
<path d="M8.66064 3.90869V4.58751" stroke="#040404" stroke-width="0.5" stroke-miterlimit="10" stroke-linecap="round" stroke-linejoin="round"/>
<path d="M8.66075 10.6973L7.98193 11.7155L8.66075 14.0914L9.33957 11.7155L8.66075 10.6973Z" stroke="#040404" stroke-width="0.5" stroke-miterlimit="10" stroke-linecap="round" stroke-linejoin="round"/>
<path d="M5.26644 6.62402H3.22998V13.4122" stroke="#040404" stroke-width="0.5" stroke-miterlimit="10" stroke-linecap="round" stroke-linejoin="round"/>
<path d="M14.0911 13.4122V6.62402H12.0547" stroke="#040404" stroke-width="0.5" stroke-miterlimit="10" stroke-linecap="round" stroke-linejoin="round"/>
<path d="M6.62424 13.4121H3.23014L2.21191 16.8062H15.1095L14.0913 13.4121H10.6972" stroke="#040404" stroke-width="0.5" stroke-miterlimit="10" stroke-linecap="round" stroke-linejoin="round"/>
<path d="M7.98193 15.4487H9.33957" stroke="#040404" stroke-width="0.5" stroke-miterlimit="10" stroke-linecap="round" stroke-linejoin="round"/>
<path d="M6.62435 11.0366L4.9273 11.376L4.58789 12.0549" stroke="#040404" stroke-width="0.5" stroke-miterlimit="10" stroke-linecap="round" stroke-linejoin="round"/>
<path d="M10.6973 11.0366L12.3943 11.376L12.7337 12.0549" stroke="#040404" stroke-width="0.5" stroke-miterlimit="10" stroke-linecap="round" stroke-linejoin="round"/>
</g>
<defs>
<clipPath id="clip0_958_1634">
<rect width="17" height="17" fill="white" transform="translate(0.5 0.5)"/>
</clipPath>
</defs>
</svg>
