<svg width="18" height="17" viewBox="0 0 18 17" fill="none" xmlns="http://www.w3.org/2000/svg">
<g clip-path="url(#clip0_949_1888)">
<path d="M3.58594 5.79248V15.719" stroke="#040404" stroke-width="0.664691" stroke-miterlimit="10" stroke-linecap="round" stroke-linejoin="round"/>
<path d="M3.58594 3.08558V1.28076" stroke="#040404" stroke-width="0.664691" stroke-miterlimit="10" stroke-linecap="round" stroke-linejoin="round"/>
<path d="M4.93923 5.79317H2.232L1.32959 4.43955L2.232 3.08594H4.93923L5.84164 4.43955L4.93923 5.79317Z" stroke="#040404" stroke-width="0.664691" stroke-miterlimit="10" stroke-linecap="round" stroke-linejoin="round"/>
<path d="M10.3533 13.0124H7.64606L6.74365 11.6588L7.64606 10.3052H10.3533L11.2557 11.6588L10.3533 13.0124Z" stroke="#040404" stroke-width="0.664691" stroke-miterlimit="10" stroke-linecap="round" stroke-linejoin="round"/>
<path d="M15.7683 7.59737H13.0611L12.1587 6.24375L13.0611 4.89014H15.7683L16.6707 6.24375L15.7683 7.59737Z" stroke="#040404" stroke-width="0.664691" stroke-miterlimit="10" stroke-linecap="round" stroke-linejoin="round"/>
<path d="M9 13.0122V15.7194" stroke="#040404" stroke-width="0.664691" stroke-miterlimit="10" stroke-linecap="round" stroke-linejoin="round"/>
<path d="M9 10.3049V1.28076" stroke="#040404" stroke-width="0.664691" stroke-miterlimit="10" stroke-linecap="round" stroke-linejoin="round"/>
<path d="M14.4141 7.59766V15.7193" stroke="#040404" stroke-width="0.664691" stroke-miterlimit="10" stroke-linecap="round" stroke-linejoin="round"/>
<path d="M14.4141 4.8904V1.28076" stroke="#040404" stroke-width="0.664691" stroke-miterlimit="10" stroke-linecap="round" stroke-linejoin="round"/>
</g>
<defs>
<clipPath id="clip0_949_1888">
<rect width="16.3812" height="15.56" fill="white" transform="translate(0.80957 0.720215)"/>
</clipPath>
</defs>
</svg>
