<svg width="55" height="55" viewBox="0 0 55 55" fill="none" xmlns="http://www.w3.org/2000/svg">
<path d="M13.2249 39.5792L8.83255 41.7754L4.44019 39.5792V34.0888L8.83255 31.8926L13.2249 34.0888V39.5792Z" stroke="#BABABD" stroke-width="2" stroke-miterlimit="10" stroke-linecap="round" stroke-linejoin="round"/>
<path d="M15.421 52.7559V46.1674L8.83244 43.9712L2.2439 46.1674V52.7559H15.421Z" stroke="#BABABD" stroke-width="2" stroke-miterlimit="10" stroke-linecap="round" stroke-linejoin="round"/>
<path d="M26.4019 28.5981V35.1867" stroke="#BABABD" stroke-width="2" stroke-miterlimit="10" stroke-linecap="round" stroke-linejoin="round"/>
<path d="M20.9114 39.5789L26.4018 35.1865L31.8923 39.5789" stroke="#BABABD" stroke-width="2" stroke-miterlimit="10" stroke-linecap="round" stroke-linejoin="round"/>
<path d="M48.3638 39.5792L43.9715 41.7754L39.5791 39.5792V34.0888L43.9715 31.8926L48.3638 34.0888V39.5792Z" stroke="#BABABD" stroke-width="2" stroke-miterlimit="10" stroke-linecap="round" stroke-linejoin="round"/>
<path d="M50.5599 52.7559V46.1674L43.9714 43.9712L37.3828 46.1674V52.7559H50.5599Z" stroke="#BABABD" stroke-width="2" stroke-miterlimit="10" stroke-linecap="round" stroke-linejoin="round"/>
<path d="M30.7942 11.0284L26.4019 13.2246L22.0095 11.0284V5.53798L26.4019 3.3418L30.7942 5.53798V11.0284Z" stroke="#BABABD" stroke-width="2" stroke-miterlimit="10" stroke-linecap="round" stroke-linejoin="round"/>
<path d="M32.9906 24.2056V17.6171L26.402 15.4209L19.8135 17.6171V24.2056H32.9906Z" stroke="#BABABD" stroke-width="2" stroke-miterlimit="10" stroke-linecap="round" stroke-linejoin="round"/>
</svg>
