<svg width="13" height="13" viewBox="0 0 13 13" fill="none" xmlns="http://www.w3.org/2000/svg">
<path d="M12.6953 6.86963C12.6838 6.45711 12.558 6.05545 12.3313 5.70999C12.1053 5.36516 11.7873 5.0893 11.4131 4.91433C11.5555 4.52672 11.5855 4.10718 11.5025 3.70296C11.4188 3.29811 11.2234 2.92518 10.9392 2.6257C10.6391 2.34153 10.2668 2.14677 9.86198 2.06248C9.45776 1.97946 9.03822 2.00948 8.65061 2.15188C8.47628 1.77704 8.20106 1.45839 7.85559 1.23234C7.51013 1.00628 7.10847 0.879846 6.69531 0.869629C6.2828 0.880485 5.88241 1.00564 5.53759 1.23234C5.19276 1.45903 4.91881 1.77767 4.74576 2.15188C4.35751 2.00948 3.93669 1.97819 3.5312 2.06248C3.12571 2.14549 2.75215 2.34089 2.45202 2.6257C2.16785 2.92582 1.97373 3.29939 1.89135 3.7036C1.80834 4.10782 1.84027 4.52736 1.98331 4.91433C1.60847 5.0893 1.28918 5.36452 1.06185 5.70935C0.834521 6.05418 0.707445 6.45647 0.695312 6.86963C0.708084 7.28278 0.834521 7.68444 1.06185 8.02991C1.28918 8.37474 1.60847 8.6506 1.98331 8.82493C1.84027 9.2119 1.80834 9.63144 1.89135 10.0357C1.97437 10.4405 2.16785 10.8134 2.45138 11.1136C2.75151 11.3964 3.12443 11.5906 3.52865 11.6742C3.93286 11.7585 4.3524 11.7279 4.74001 11.5874C4.91498 11.9616 5.1902 12.2796 5.53567 12.5063C5.8805 12.7323 6.2828 12.8581 6.69531 12.8696C7.10847 12.8594 7.51013 12.7336 7.85559 12.5076C8.20106 12.2815 8.47628 11.9622 8.65061 11.588C9.03631 11.7406 9.45904 11.777 9.86581 11.6927C10.2719 11.6085 10.6449 11.4073 10.9386 11.1136C11.2323 10.8198 11.4341 10.4469 11.5184 10.0401C11.6027 9.63336 11.5663 9.21063 11.4131 8.82493C11.7873 8.64996 12.1053 8.37474 12.332 8.02927C12.558 7.68444 12.6838 7.28214 12.6953 6.86963ZM5.84091 9.32812L3.65125 7.1391L4.47692 6.30769L5.80004 7.6308L8.60974 4.5695L9.4699 5.36516L5.84091 9.32812Z" fill="#1D9BF0"/>
</svg>
